# xmcd
#
# Track frame offsets:
#	150
#	17015
#	36315
#	55249
#	71974
#	88790
#
# Disc length: 1407 seconds
#
# Revision: 0
# Processed by: cddbd v1.5.1PL0 Copyright (c) Steve Scherf et al.
# Submitted via: audiograbber 1.83.01
#
DISCID=50057d06
DTITLE=Jansen and Kowalski - Wie Geil ist das denn? (Dicke Anbiete)
DYEAR=2005
DGENRE=Hip-Hop
TTITLE0=Wie Geil ist das denn? (Das Original) (feat. Das Bo)
TTITLE1=Wie Geil ist das denn? (Deichkind-Klatsch, Cash and Punkte Remix) (feat. 
TTITLE1=Das Bo)
TTITLE2=Wie Geil ist das denn? (Beathoavenz-Cut) (feat. Das Bo)
TTITLE3=Wie Geil ist das denn? (Petone-80´s Flashback Remix) (feat. Das Bo)
TTITLE4=Wie Geil ist das denn? (Grizzly-Heart ´N´ Heavy Remix) (feat. Das Bo)
TTITLE5=Wie Geil ist das denn? (Quetschkommode Radio Mix) (feat. Das Bo)
EXTD=
EXTT0=
EXTT1=
EXTT2=
EXTT3=
EXTT4=
EXTT5=
PLAYORDER=
